<?xml version="1.0" encoding="utf-8"?>
<!-- Generator: Adobe Illustrator 22.1.0, SVG Export Plug-In . SVG Version: 6.00 Build 0)  -->
<svg version="1.1" id="Слой_1" xmlns="http://www.w3.org/2000/svg" xmlns:xlink="http://www.w3.org/1999/xlink" x="0px" y="0px"
	 viewBox="0 0 930 600" style="enable-background:new 0 0 930 600;" xml:space="preserve">
<style type="text/css">
	.st0{fill:#382A77;}
</style>
<g>
	<g>
		<path class="st0" d="M322.2,417.6l-168-291h336L322.2,417.6z M223.2,166.5l99,171.4l99-171.4H223.2z"/>
		<g>
			<polygon class="st0" points="542.8,316.1 588.8,316.1 620,262.1 651.2,316.1 697.2,316.1 620,182.4 			"/>
			<polygon class="st0" points="788,473.4 734,379.9 688,379.9 719,433.5 521,433.5 552,379.9 506,379.9 452,473.4 			"/>
		</g>
		<polyline class="st0" points="390.3,341.5 321.2,455.2 111.7,106.7 556.2,106.7 579.2,66.8 41.3,66.8 320.5,531.5 432.5,341.9 		
			"/>
		<g>
			<polygon class="st0" points="888.7,533.2 768.1,328.1 514.2,328.1 619.7,146.4 668.3,230.2 714.4,230.2 619.6,67 445,367.9 
				745.3,367.9 819,493.3 419.5,493.3 451,437.5 405.2,437.5 351.3,533.2 			"/>
		</g>
	</g>
</g>
</svg>
