<?xml version="1.0" encoding="utf-8"?>
<!-- Generator: Adobe Illustrator 22.1.0, SVG Export Plug-In . SVG Version: 6.00 Build 0)  -->
<svg version="1.1" id="Слой_1" xmlns="http://www.w3.org/2000/svg" xmlns:xlink="http://www.w3.org/1999/xlink" x="0px" y="0px"
	 viewBox="0 0 2400 600" style="enable-background:new 0 0 2400 600;" xml:space="preserve">
<style type="text/css">
	.st0{fill:#78A8D5;}
	.st1{fill:#FFFFFF;}
</style>
<g>
	<g>
		<path class="st0" d="M302.6,411.6l-168-291h336L302.6,411.6z M203.6,160.4l99,171.4l99-171.4H203.6z"/>
		<g>
			<polygon class="st0" points="523.2,310.1 569.2,310.1 600.4,256.1 631.6,310.1 677.6,310.1 600.4,176.4 			"/>
			<polygon class="st0" points="768.4,467.4 714.4,373.9 668.4,373.9 699.4,427.5 501.4,427.5 532.4,373.9 486.4,373.9 432.4,467.4 
							"/>
		</g>
		<polyline class="st0" points="370.7,335.4 301.6,449.2 92.1,100.6 536.6,100.6 559.6,60.8 21.6,60.8 300.9,525.4 412.9,335.8 		
			"/>
		<g>
			<polygon class="st0" points="869.1,527.2 748.4,322.1 494.6,322.1 600,140.4 648.7,224.2 694.8,224.2 600,60.9 425.4,361.9 
				725.6,361.9 799.4,487.3 399.9,487.3 431.4,431.5 385.6,431.5 331.7,527.2 			"/>
		</g>
	</g>
	<g>
		<path class="st1" d="M852.1,178.3h-92.7c-3.1,0-5.1-0.5-6.1-1.6c-1-1-1.6-3.1-1.6-6.1v-60.4c0-3.1,0.5-5.1,1.6-6.1
			c1-1,3.1-1.6,6.1-1.6h92.2V80.1h-95.4c-7.5,0-13.9,2.6-19.2,7.9c-5.3,5.3-7.9,11.7-7.9,19.2v66.6c0,7.5,2.6,13.9,7.9,19.2
			c5.3,5.3,11.7,7.9,19.2,7.9h95.8V178.3z"/>
		<path class="st1" d="M1163.4,192.9c5.3-5.3,7.9-11.7,7.9-19.2v-66.6c0-7.5-2.6-13.9-7.9-19.2c-5.3-5.3-11.7-7.9-19.2-7.9h-73.3
			V40.5h-22.5v160.3h95.8C1151.7,200.8,1158.1,198.2,1163.4,192.9z M1078.6,178.3c-3.1,0-5.1-0.5-6.1-1.6c-1-1-1.6-3.1-1.6-6.1
			v-60.4c0-3.1,0.5-5.1,1.6-6.1c1-1,3.1-1.6,6.1-1.6h62.5c3.1,0,5.1,0.5,6.1,1.6c1,1,1.6,3.1,1.6,6.1v60.4c0,3.1-0.5,5.1-1.6,6.1
			c-1,1-3.1,1.6-6.1,1.6H1078.6z"/>
		<path class="st1" d="M1229.4,200.8h95.8v-22.5h-92.7c-3.1,0-5.1-0.5-6.1-1.6c-1-1-1.6-3.1-1.6-6.1v-18.9h100.4v-44.6
			c0-7.5-2.6-13.9-7.9-19.2c-5.3-5.3-11.7-7.9-19.2-7.9h-68.7c-7.5,0-13.9,2.6-19.2,7.9c-5.3,5.3-7.9,11.7-7.9,19.2v66.6
			c0,7.5,2.6,13.9,7.9,19.2C1215.5,198.2,1221.9,200.8,1229.4,200.8z M1224.8,110.3c0-3.1,0.5-5.1,1.6-6.1c1-1,3.1-1.6,6.1-1.6h62.5
			c3.1,0,5.1,0.5,6,1.6c1,1,1.5,3.1,1.5,6.1v20.4h-77.7V110.3z"/>
		<path class="st1" d="M1383.5,110.3c0-3.1,0.5-5.1,1.6-6.1c1-1,3.1-1.6,6.1-1.6h64.3V80.1h-67.5c-7.5,0-13.9,2.6-19.2,7.9
			c-5.3,5.3-7.9,11.7-7.9,19.2v93.7h22.5V110.3z"/>
		<path class="st1" d="M1001.7,352.2h73.3c7.5,0,13.9-2.6,19.2-7.9c5.3-5.3,7.9-11.7,7.9-19.2v-66.6c0-7.5-2.6-13.9-7.9-19.2
			c-5.3-5.3-11.7-7.9-19.2-7.9h-66.9c1.6-3.5,2.4-7.3,2.4-11.4V80.5h-22.5v90.2c0,3.1-0.5,5.1-1.6,6.1c-1,1-3.1,1.6-6.1,1.6h-62.5
			c-3.1,0-5.1-0.5-6.1-1.6c-1-1-1.6-3.1-1.6-6.1V80.5h-22.5v93.3c0,7.5,2.6,13.9,7.9,19.2c5.3,5.3,11.7,7.9,19.2,7.9h73.3v30.5
			h-79.1v0l-60.1,0.1c-7.5,0-13.9,2.6-19.2,7.9c-5.3,5.3-7.9,11.7-7.9,19.2V276c0,7.5,2.6,13.9,7.9,19.2c5.3,5.3,11.7,7.9,19.2,7.9
			h66.8c2.2,0,3.8,0.5,4.8,1.6c1,1,1.5,2.7,1.5,4.9v13.7c0,2.2-0.5,3.9-1.5,4.9c-1,1-2.6,1.6-4.8,1.6h-65c-2.2,0-3.8-0.5-4.9-1.6
			c-1-1-1.6-2.7-1.6-4.9V322h-22.5v3.1c0,7.5,2.6,13.9,7.9,19.2c5.3,5.3,11.7,7.9,19.2,7.9h68.7c7.5,0,13.9-2.6,19.2-7.9
			c5.3-5.3,7.9-11.7,7.9-19.2v-17.5c0-7.5-2.6-13.9-7.9-19.2c-5.3-5.3-11.7-7.9-19.2-7.9h-66.8c-2.2,0-3.8-0.5-4.9-1.6
			c-1-1-1.6-2.7-1.6-4.9v-13.7c0-2.2,0.5-3.9,1.6-4.9c1-1,3.5-1.4,5.7-1.4h56.7l0.7,0v0h70.3v98.9v47.1v84.7
			c0,7.5,2.6,13.9,7.9,19.2c5.3,5.3,11.7,7.9,19.2,7.9h45v-22.5h-41.9c-3.1,0-5.1-0.5-6.1-1.6c-1-1-1.6-3.1-1.6-6.1v-68.1h49.6V391
			h-49.6v-38.1V352.2z M1071.9,253.9c3.1,0,5.1,0.5,6.1,1.6c1,1,1.6,3.1,1.6,6.1V322c0,3.1-0.5,5.1-1.6,6.1c-1,1-3.1,1.6-6.1,1.6
			h-62.5c-3.1,0-5.1-0.5-6.1-1.6c-1-1-1.6-3.1-1.6-6.1v-60.4c0-3.1,0.5-5.1,1.6-6.1c1-1,3.1-1.6,6.1-1.6H1071.9z"/>
		<path class="st1" d="M1132.7,280.5v44.6c0,7.5,2.6,13.9,7.9,19.2c5.3,5.3,11.7,7.9,19.2,7.9h95.8v-93.7c0-7.5-2.6-13.9-7.9-19.2
			c-5.3-5.3-11.7-7.9-19.2-7.9h-95.8v22.5h92.7c3.1,0,5.1,0.5,6,1.6c1,1,1.5,3.1,1.5,6.1v18.9H1132.7z M1232.9,329.7h-70
			c-3.1,0-5.1-0.5-6.1-1.6c-1-1-1.6-3.1-1.6-6.1v-20.4h77.7V329.7z"/>
		<path class="st1" d="M1443.8,258.5v66.6c0,7.5,2.6,13.9,7.9,19.2c5.3,5.3,11.7,7.9,19.2,7.9h95.8v-22.5H1474
			c-3.1,0-5.1-0.5-6.1-1.6c-1-1-1.6-3.1-1.6-6.1V303h100.4v-44.6c0-7.5-2.6-13.9-7.9-19.2c-5.3-5.3-11.7-7.9-19.2-7.9h-68.7
			c-7.5,0-13.9,2.6-19.2,7.9C1446.4,244.6,1443.8,251,1443.8,258.5z M1466.3,261.6c0-3.1,0.5-5.1,1.6-6.1c1-1,3.1-1.6,6.1-1.6h62.5
			c3.1,0,5.1,0.5,6,1.6c1,1,1.5,3.1,1.5,6.1V282h-77.7V261.6z"/>
		<path class="st1" d="M1179,391h-68.7c-7.5,0-13.9,2.6-19.2,7.9c-5.3,5.3-7.9,11.7-7.9,19.2v66.6c0,7.5,2.6,13.9,7.9,19.2
			c5.3,5.3,11.7,7.9,19.2,7.9h95.8v-22.5h-92.7c-3.1,0-5.1-0.5-6.1-1.6c-1-1-1.6-3.1-1.6-6.1v-18.9h100.4v-44.6
			c0-7.5-2.6-13.9-7.9-19.2C1192.9,393.7,1186.5,391,1179,391z M1183.4,441.6h-77.7v-20.4c0-3.1,0.5-5.1,1.6-6.1
			c1-1,3.1-1.6,6.1-1.6h62.5c3.1,0,5.1,0.5,6,1.6c1,1,1.5,3.1,1.5,6.1V441.6z"/>
		<path class="st1" d="M1262.4,487.8c-1-1-1.6-3.1-1.6-6.1v-60.4c0-3.1,0.5-5.1,1.6-6.1c1-1,3.1-1.6,6.1-1.6h92.2V391h-95.4
			c-7.5,0-13.9,2.6-19.2,7.9c-5.3,5.3-7.9,11.7-7.9,19.2v66.6c0,7.5,2.6,13.9,7.9,19.2c5.3,5.3,11.7,7.9,19.2,7.9h95.8v-22.5h-92.7
			C1265.5,489.3,1263.4,488.8,1262.4,487.8z"/>
		<path class="st1" d="M1489.3,391H1416l0.1-38.9h0v-23.6l-97.4,1.1c-3,0-5.1-0.5-6.1-1.6c-1-1-1.6-3.1-1.6-6.1v-60.4
			c0-3.1,0.5-5.1,1.6-6.1c1-1,3.1-1.6,6.1-1.6l97.4,0.1v-22.7l-100.5,0.1c-7.5,0-13.8,2.6-19.1,7.9c-5.3,5.3-7.9,11.7-7.9,19.2v66.6
			c0,7.5,2.6,13.9,7.9,19.2c5.3,5.3,11.6,7.9,19.1,7.9h77.9v159.6h22.5v-90.6c0-3.1,0.5-5.1,1.6-6.1c1-1,3.1-1.6,6.1-1.6h62.5
			c3.1,0,5.1,0.5,6.1,1.6c1,1,1.6,3.1,1.6,6.1v90.6h22.5v-93.7c0-7.5-2.7-13.9-8-19.2C1503,393.7,1496.6,391,1489.3,391z"/>
		<path class="st1" d="M1645.6,391h-95.8v120.8h22.5v-90.6c0-3.1,0.5-5.1,1.6-6.1c1-1,3.1-1.6,6.1-1.6h62.5c3.1,0,5.1,0.5,6.1,1.6
			c1,1,1.6,3.1,1.6,6.1v90.6h22.5v-93.7c0-7.5-2.6-13.9-7.9-19.2C1659.5,393.7,1653.1,391,1645.6,391z"/>
		<path class="st1" d="M1801.6,391h-68.7c-7.5,0-13.9,2.6-19.2,7.9c-5.3,5.3-7.9,11.7-7.9,19.2v66.6c0,7.5,2.6,13.9,7.9,19.2
			c5.3,5.3,11.7,7.9,19.2,7.9h68.7c7.5,0,13.9-2.6,19.2-7.9c5.3-5.3,7.9-11.7,7.9-19.2v-66.6c0-7.5-2.6-13.9-7.9-19.2
			C1815.5,393.7,1809.1,391,1801.6,391z M1806,481.6c0,3.1-0.5,5.1-1.5,6.1c-1,1-3,1.6-6,1.6H1736c-3.1,0-5.1-0.5-6.1-1.6
			c-1-1-1.6-3.1-1.6-6.1v-60.4c0-3.1,0.5-5.1,1.6-6.1c1-1,3.1-1.6,6.1-1.6h62.5c3.1,0,5.1,0.5,6,1.6c1,1,1.5,3.1,1.5,6.1V481.6z"/>
		<path class="st1" d="M1885,487.8c-1-1-1.6-3.1-1.6-6.1V351.5h-22.5v133.3c0,7.5,2.6,13.9,7.9,19.2c5.3,5.3,11.7,7.9,19.2,7.9h22.5
			v-22.5h-19.4C1888.1,489.3,1886,488.8,1885,487.8z"/>
		<path class="st1" d="M2037.1,391h-68.7c-7.5,0-13.9,2.6-19.2,7.9c-5.3,5.3-7.9,11.7-7.9,19.2v66.6c0,7.5,2.6,13.9,7.9,19.2
			c5.3,5.3,11.7,7.9,19.2,7.9h68.7c7.5,0,13.9-2.6,19.2-7.9c5.3-5.3,7.9-11.7,7.9-19.2v-66.6c0-7.5-2.6-13.9-7.9-19.2
			C2051,393.7,2044.6,391,2037.1,391z M2041.4,481.6c0,3.1-0.5,5.1-1.5,6.1c-1,1-3,1.6-6,1.6h-62.5c-3.1,0-5.1-0.5-6.1-1.6
			c-1-1-1.6-3.1-1.6-6.1v-60.4c0-3.1,0.5-5.1,1.6-6.1c1-1,3.1-1.6,6.1-1.6h62.5c3.1,0,5.1,0.5,6,1.6c1,1,1.5,3.1,1.5,6.1V481.6z"/>
		<path class="st1" d="M2194.7,391H2126c-7.5,0-13.9,2.6-19.2,7.9c-5.3,5.3-7.9,11.7-7.9,19.2v66.6c0,7.5,2.6,13.9,7.9,19.2
			c5.3,5.3,11.7,7.9,19.2,7.9h73.3v17.3c0,3-0.5,5.1-1.6,6.1c-1,1-3.1,1.6-6.1,1.6h-71.4v22.7h74.5c7.5,0,13.9-2.6,19.2-7.9
			c5.3-5.3,7.9-11.7,7.9-19.2V418.1c0-7.5-2.6-13.9-7.9-19.2C2208.6,393.7,2202.2,391,2194.7,391z M2199.3,481.6
			c0,3.1-0.5,5.1-1.6,6.1c-1,1-3.1,1.6-6.1,1.6h-62.5c-3.1,0-5.1-0.5-6.1-1.6c-1-1-1.6-3.1-1.6-6.1v-60.4c0-3.1,0.5-5.1,1.6-6.1
			c1-1,3.1-1.6,6.1-1.6h62.5c3.1,0,5.1,0.5,6.1,1.6c1,1,1.6,3.1,1.6,6.1V481.6z"/>
		<path class="st1" d="M2355.9,391.5v90.2c0,3.1-0.5,5.1-1.6,6.1c-1,1-3.1,1.6-6.1,1.6h-62.5c-3.1,0-5.1-0.5-6.1-1.6
			c-1-1-1.6-3.1-1.6-6.1v-90.2h-22.5v93.3c0,7.5,2.6,13.9,7.9,19.2c5.3,5.3,11.7,7.9,19.2,7.9h73.3v15.8c0,3.1-0.5,5.1-1.6,6.1
			c-1,1-3.1,1.6-6.1,1.6h-71.4V558h74.5c7.5,0,13.9-2.6,19.2-7.9c5.3-5.3,7.9-11.7,7.9-19.2V391.5H2355.9z"/>
	</g>
</g>
</svg>
